<?xml version="1.0" encoding="UTF-8" standalone="no"?>
<!-- Created with Inkscape (http://www.inkscape.org/) -->

<svg
   xmlns:dc="http://purl.org/dc/elements/1.1/"
   xmlns:cc="http://creativecommons.org/ns#"
   xmlns:rdf="http://www.w3.org/1999/02/22-rdf-syntax-ns#"
   xmlns:svg="http://www.w3.org/2000/svg"
   xmlns="http://www.w3.org/2000/svg"
   xmlns:sodipodi="http://sodipodi.sourceforge.net/DTD/sodipodi-0.dtd"
   xmlns:inkscape="http://www.inkscape.org/namespaces/inkscape"
   id="svg2"
   version="1.1"
   inkscape:version="0.91 r13725"
   xml:space="preserve"
   width="440.625"
   height="67.5"
   viewBox="0 0 440.625 67.5"
   sodipodi:docname="makandra_Logo.eps"><metadata
     id="metadata8"><rdf:RDF><cc:Work
         rdf:about=""><dc:format>image/svg+xml</dc:format><dc:type
           rdf:resource="http://purl.org/dc/dcmitype/StillImage" /><dc:title></dc:title></cc:Work></rdf:RDF></metadata><defs
     id="defs6" /><sodipodi:namedview
     pagecolor="#ffffff"
     bordercolor="#666666"
     borderopacity="1"
     objecttolerance="10"
     gridtolerance="10"
     guidetolerance="10"
     inkscape:pageopacity="0"
     inkscape:pageshadow="2"
     inkscape:window-width="1753"
     inkscape:window-height="1122"
     id="namedview4"
     showgrid="false"
     inkscape:zoom="1.7157447"
     inkscape:cx="280.04399"
     inkscape:cy="-58.058619"
     inkscape:window-x="2013"
     inkscape:window-y="37"
     inkscape:window-maximized="0"
     inkscape:current-layer="g10" /><g
     id="g10"
     inkscape:groupmode="layer"
     inkscape:label="ink_ext_XXXXXX"
     transform="matrix(1.25,0,0,-1.25,0,67.5)"><path
       inkscape:connector-curvature="0"
       id="path14"
       style="fill:#003155;fill-opacity:1;fill-rule:nonzero;stroke:none"
       d="m 170.541,23.207 0,9.1559 c 3.717,3.7176 10.626,5.0676 15.468,5.0676 4.2,0 7.85,-1.1918 10.861,-3.5664 3.093,-2.3028 4.599,-5.1532 4.599,-8.4903 l 0,-24.26247 -8.878,0 0,22.04177 c 0,3.7317 -3.969,6.5848 -8.804,6.5848 -4.842,0 -8.803,-3.0156 -8.803,-6.5848 l -4.443,0.0539" /><path
       inkscape:connector-curvature="0"
       id="path16"
       style="fill:#003155;fill-opacity:1;fill-rule:nonzero;stroke:none"
       d="m 102.279,36.3199 0,-35.20857 -4.4438,0 -3.3325,3.41015 C 91.4105,1.50586 87.3676,0 82.4492,0 78.2477,0 74.5973,1.19258 71.5859,3.56641 68.5738,5.95039 67.0691,8.80156 67.0691,12.1328 l 0,13.241 c 0,3.3371 1.5047,6.1875 4.5168,8.4903 3.0114,2.3746 6.6618,3.5664 10.8633,3.5664 4.9184,0 8.9613,-1.5102 12.0535,-4.4422 l 3.3325,3.3316 4.4438,0 z M 93.477,23.1531 c 0,3.7317 -3.9657,6.5848 -8.804,6.5848 -4.8402,0 -8.8015,-3.0156 -8.8015,-6.5848 l 0,-8.8008 c 0,-3.7273 3.9613,-6.65894 8.8015,-6.65894 4.8383,0 8.804,2.93164 8.804,6.65894 l 0,8.8008" /><path
       inkscape:connector-curvature="0"
       id="path18"
       style="fill:#00a7de;fill-opacity:1;fill-rule:nonzero;stroke:none"
       d="m 102.77,18.7156 17.842,17.6043 10.785,0 -17.763,-17.6043 17.763,-17.60427 -10.785,0 -11.974,11.89527 -5.868,5.709" /><path
       inkscape:connector-curvature="0"
       id="path20"
       style="fill:#003155;fill-opacity:1;fill-rule:nonzero;stroke:none"
       d="m 166.506,36.3199 0,-35.20857 -4.442,0 -3.33,3.41015 C 155.642,1.50586 151.596,0 146.68,0 c -4.2,0 -7.847,1.19258 -10.864,3.56641 -3.016,2.38398 -4.522,5.23515 -4.522,8.56639 l 0,13.241 c 0,3.3371 1.506,6.1875 4.522,8.4903 3.017,2.3746 6.664,3.5664 10.864,3.5664 4.916,0 8.962,-1.5102 12.054,-4.4422 l 3.33,3.3316 4.442,0 z m -8.805,-13.1668 c 0,3.7317 -3.967,6.5848 -8.802,6.5848 -4.835,0 -8.802,-3.0156 -8.802,-6.5848 l 0,-8.8008 c 0,-3.7273 3.967,-6.65894 8.802,-6.65894 4.835,0 8.802,2.93164 8.802,6.65894 l 0,8.8008" /><path
       inkscape:connector-curvature="0"
       id="path22"
       style="fill:#003155;fill-opacity:1;fill-rule:nonzero;stroke:none"
       d="m 241.852,1.11133 -4.441,0 -3.413,3.41015 C 230.91,1.50586 226.865,0 222.025,0 c -4.279,0 -7.929,1.19258 -10.938,3.56641 -3.016,2.38398 -4.524,5.23515 -4.524,8.56639 l 0,13.241 c 0,3.3371 1.508,6.1875 4.524,8.4903 3.009,2.3746 6.659,3.5664 10.938,3.5664 4.362,0 8.014,-1.1918 11.023,-3.6477 l 0,20.2207 8.804,0 0,-52.89217 z M 215.367,14.3523 c 0,-3.7273 3.963,-6.65894 8.803,-6.65894 4.835,0 8.878,2.93164 8.878,6.65894 l 0,8.8008 c 0,3.5692 -3.885,6.5848 -8.878,6.5848 -4.84,0 -8.803,-3.0156 -8.803,-6.5848 l 0,-8.8008" /><path
       inkscape:connector-curvature="0"
       id="path24"
       style="fill:#003155;fill-opacity:1;fill-rule:nonzero;stroke:none"
       d="m 309.225,36.3199 0,-35.20857 -4.443,0 -3.33,3.41015 C 298.362,1.50586 294.317,0 289.396,0 c -4.199,0 -7.846,1.19258 -10.86,3.56641 -3.015,2.38398 -4.52,5.23515 -4.52,8.56639 l 0,13.241 c 0,3.3371 1.505,6.1875 4.52,8.4903 3.014,2.3746 6.661,3.5664 10.86,3.5664 4.921,0 8.966,-1.5102 12.056,-4.4422 l 3.33,3.3316 4.443,0 z m -8.799,-13.1668 c 0,3.7317 -3.971,6.5848 -8.804,6.5848 -4.845,0 -8.804,-3.0156 -8.804,-6.5848 l 0,-8.8008 c 0,-3.7273 3.959,-6.65894 8.804,-6.65894 4.833,0 8.804,2.93164 8.804,6.65894 l 0,8.8008" /><path
       inkscape:connector-curvature="0"
       id="path26"
       style="fill:#003155;fill-opacity:1;fill-rule:nonzero;stroke:none"
       d="m 35.2871,1.11133 -8.8793,0 0,22.04177 c 0,3.7317 -3.966,6.5848 -8.8031,6.5848 -4.8387,0 -8.80236,-3.0156 -8.80236,-6.5848 l 0,-22.04177 -8.80234,0 0,35.20857 4.43984,0 3.40782,-3.3316 c 3.09644,2.932 7.13714,4.4422 11.97814,4.4422 5.8683,0 10.309,-1.984 13.2422,-5.8692 2.9336,3.8852 7.3777,5.8692 13.1633,5.8692 4.2832,0 7.9308,-1.1918 10.9421,-3.5664 3.0168,-2.3028 4.5215,-5.1532 4.5215,-8.4903 l 0,-24.26247 -8.8023,0 0,22.04177 c 0,3.5692 -3.9613,6.5848 -8.8012,6.5848 -4.8359,0 -8.8043,-2.8531 -8.8043,-6.5848 l 0,-22.04177" /><path
       inkscape:connector-curvature="0"
       id="path28"
       style="fill:#00a7de;fill-opacity:1;fill-rule:nonzero;stroke:none"
       d="m 352.503,18.7156 -17.839,17.6043 -10.788,0 17.768,-17.6043 -17.768,-17.60427 10.788,0 11.973,11.89527 5.866,5.709" /><path
       inkscape:connector-curvature="0"
       id="path30"
       style="fill:#003155;fill-opacity:1;fill-rule:nonzero;stroke:none"
       d="m 269.484,28.0336 0,9.1891 c -5.716,0 -10.258,-1.5684 -13.789,-4.618 l -3.602,3.5215 -4.389,0 0,-34.78753 8.697,0 0,21.78043 c 0,1.3047 0.725,2.459 2.143,3.4649 1.602,1.4109 3.95,2.3371 6.589,2.3371 1.592,0 3.063,-0.3348 4.351,-0.8875" /></g></svg>